<?xml version="1.0" encoding="iso-8859-1"?>
<!-- Generator: Adobe Illustrator 19.0.0, SVG Export Plug-In . SVG Version: 6.00 Build 0)  -->
<svg version="1.1" id="Layer_1" xmlns="http://www.w3.org/2000/svg" xmlns:xlink="http://www.w3.org/1999/xlink" x="0px" y="0px"
	 viewBox="0 0 512 512" style="enable-background:new 0 0 512 512;" xml:space="preserve">
<g>
	<g>
		<path d="M188.51,286.449c-2.889-4.835-9.151-6.414-13.987-3.525c-32.034,19.138-55.385,50.835-64.067,86.962
			c-1.316,5.478,2.058,10.984,7.534,12.3c0.802,0.193,1.603,0.285,2.392,0.285c4.607,0,8.786-3.142,9.909-7.819
			c7.407-30.825,27.343-57.876,54.695-74.218C189.82,297.547,191.398,291.285,188.51,286.449z"/>
	</g>
</g>
<g>
	<g>
		<path d="M245.834,263.299c-10.9,0-21.754,1.266-32.265,3.76c-5.48,1.3-8.868,6.798-7.568,12.279
			c1.113,4.689,5.297,7.846,9.915,7.846c0.78,0,1.573-0.09,2.364-0.278c8.969-2.129,18.239-3.209,27.554-3.209
			c5.632,0,10.199-4.566,10.199-10.199C256.034,267.865,251.466,263.299,245.834,263.299z"/>
	</g>
</g>
<g>
	<g>
		<path d="M437.881,284.194c-17.589-15.873-38.628-27.987-61.844-35.07c26.677-16.178,44.54-45.496,44.54-78.908
			c0-50.847-41.368-92.215-92.215-92.215c-4.832,0-9.577,0.375-14.211,1.095C296.391,62.209,272.385,51.829,246,51.829
			c-26.385,0-50.391,10.379-68.152,27.268c-4.633-0.72-9.379-1.095-14.212-1.095c-50.847,0-92.214,41.368-92.214,92.215
			c0,33.412,17.863,62.729,44.539,78.907C48.914,269.582,0,332.016,0,405.669c0,5.633,4.567,10.199,10.199,10.199h69.714h266.808
			c15.338,26.464,43.973,44.303,76.697,44.303c48.844,0,88.582-39.737,88.582-88.582C512,327.669,479.869,291.119,437.881,284.194z
			 M405.276,284.878c-8.304,1.735-16.182,4.639-23.459,8.526c-9.022-10.897-19.328-20.692-30.684-29.155
			C370.793,267.402,389.132,274.563,405.276,284.878z M329.95,98.44c38.867,0.85,70.229,32.708,70.229,71.776
			c0,39.599-32.217,71.817-71.817,71.817c-10.953,0-21.336-2.474-30.634-6.878c28.322-17.433,47.248-48.721,47.248-84.348
			C344.976,131.59,339.465,113.639,329.95,98.44z M184.807,101.588c4.772-5.922,10.381-11.138,16.65-15.469
			c12.67-8.75,28.014-13.891,44.542-13.891c16.528,0,31.871,5.141,44.54,13.891c6.269,4.331,11.878,9.547,16.65,15.469
			c10.864,13.48,17.387,30.598,17.387,49.217c0,31.604-18.765,58.892-45.729,71.355c-6.807,3.146-14.132,5.347-21.816,6.433
			c-3.607,0.509-7.287,0.79-11.032,0.79c-3.746,0-7.426-0.28-11.034-0.79c-7.683-1.085-15.009-3.286-21.816-6.433
			c-26.964-12.463-45.728-39.751-45.728-71.355C167.421,132.185,173.944,115.068,184.807,101.588z M91.82,170.216
			c0-39.068,31.362-70.926,70.229-71.777c-9.515,15.199-15.025,33.149-15.025,52.366c0,35.628,18.925,66.915,47.247,84.348
			c-9.299,4.404-19.681,6.878-30.634,6.878C124.037,242.032,91.82,209.815,91.82,170.216z M70.016,395.47H20.758
			c4.707-66.629,55.193-120.809,120.11-131.221C100.268,294.509,73.093,341.813,70.016,395.47z M338.11,395.471H90.441v-0.001
			c3.81-58.73,40.297-108.693,91.412-131.863c11.944-5.415,24.685-9.37,37.997-11.627c8.505-1.442,17.24-2.197,26.149-2.197
			s17.644,0.755,26.148,2.197c13.312,2.258,26.053,6.212,37.998,11.627c21.239,9.628,39.953,23.875,54.845,41.463
			c-18.474,16.246-30.154,40.043-30.154,66.521C334.837,379.862,335.98,387.87,338.11,395.471z M475.204,415.868
			c-12.515,14.615-31.081,23.904-51.786,23.904s-39.271-9.289-51.785-23.905c-5.133-5.994-9.251-12.88-12.072-20.398
			c-2.791-7.436-4.327-15.481-4.327-23.88c0-19.765,8.46-37.584,21.942-50.049c4.993-4.616,10.669-8.502,16.867-11.473
			c8.901-4.267,18.862-6.662,29.375-6.662c1.811,0,3.601,0.093,5.377,0.232c14.69,1.153,28.08,6.972,38.693,15.984
			c14.737,12.517,24.114,31.164,24.114,51.969c0,4.116-0.387,8.141-1.089,12.059C488.333,395.805,482.926,406.851,475.204,415.868z"
			/>
	</g>
</g>
<g>
	<g>
		<path d="M475.489,355.619c-1.891-5.818-7.27-9.726-13.388-9.726H452.8c-5.858,0-11.01-3.743-12.82-9.314l-2.874-8.847v-0.001
			c-1.891-5.818-7.271-9.726-13.388-9.725c-6.117,0-11.497,3.908-13.386,9.726l-2.874,8.847c-1.809,5.571-6.961,9.314-12.819,9.314
			h-9.302c-6.117,0-11.497,3.908-13.387,9.725c-1.891,5.818,0.163,12.143,5.113,15.739l7.525,5.467
			c4.739,3.443,6.707,9.5,4.897,15.071l-2.873,8.846c-1.891,5.817,0.163,12.142,5.112,15.737c4.949,3.597,11.6,3.596,16.549,0.001
			l7.525-5.467c4.739-3.442,11.108-3.442,15.846,0l7.526,5.468c2.474,1.798,5.373,2.697,8.273,2.697c2.901,0,5.801-0.9,8.277-2.699
			c4.948-3.596,7.002-9.921,5.112-15.736l-2.874-8.848c-1.81-5.571,0.158-11.627,4.897-15.07l7.525-5.467
			C475.325,367.761,477.38,361.437,475.489,355.619z M437.022,390.753c-8.497-3.641-18.112-3.641-26.607,0
			c0.838-9.206-2.133-18.35-8.222-25.305c9.015-2.047,16.792-7.697,21.525-15.638c4.732,7.94,12.511,13.59,21.525,15.638
			C439.153,372.404,436.183,381.548,437.022,390.753z"/>
	</g>
</g>
<g>
</g>
<g>
</g>
<g>
</g>
<g>
</g>
<g>
</g>
<g>
</g>
<g>
</g>
<g>
</g>
<g>
</g>
<g>
</g>
<g>
</g>
<g>
</g>
<g>
</g>
<g>
</g>
<g>
</g>
</svg>
